<svg version="1.1" xmlns="http://www.w3.org/2000/svg" xmlns:xlink="http://www.w3.org/1999/xlink" viewBox="0 0 511.269 511.269" style="enable-background:new 0 0 511.269 511.269;" xml:space="preserve">
    <path style="fill:#F3705A;" d="M 140.4 465.1 C 116.9 438.4 93.4 410.7 78.5 377.6 c -14.9 -35.2 -19.2 -75.7 -11.7 -114.1 s 24.5 -74.7 49.1 -105.6 c -2.1 26.7 7.5 54.4 25.6 74.7 c -10.7 -51.2 6.4 -106.7 40.5 -147.2 S 263 18.1 312.1 0 c -24.5 25.6 -27.7 66.1 -18.1 100.3 c 9.6 34.1 29.9 64 48 94.9 c 18.1 30.9 35.2 62.9 36.3 98.1 c 9.6 -18.1 20.3 -36.3 26.7 -56.5 c 6.4 -20.3 9.6 -41.6 4.3 -61.9 c 19.2 23.5 29.9 46.9 35.2 76.8 c 5.3 29.9 4.3 60.8 1.1 90.7 c -4.3 33.1 -12.8 67.2 -30.9 94.9 c -21.3 33.1 -55.5 56.5 -92.8 69.3 C 255.6 518.4 190.5 508.8 140.4 465.1 z"/>
    <path style="fill:#FFD16C;" d="M 188.9342 463.0107 C 176.769 449.1866 164.6042 434.8098 156.8624 417.6678 c -7.7413 -18.2477 -9.9533 -39.26 -6.0824 -59.1666 s 12.7179 -38.7074 25.4363 -54.743 c -1.1058 13.8242 3.8709 28.201 13.271 38.7074 c -5.5298 -26.5421 3.3178 -55.2962 21.0123 -76.3085 S 252.5248 231.3202 275.6 221.6 c -12.7179 13.271 -14.3768 34.2834 -9.4002 51.9784 c 4.9766 17.6946 15.483 33.1776 24.8832 49.2133 c 9.4002 16.0357 18.2477 32.6245 18.8008 50.8722 c 4.9766 -9.4002 10.5064 -18.8008 13.8242 -29.3067 c 3.3178 -10.5064 4.9766 -21.5654 2.212 -32.0718 c 9.9533 12.1653 15.483 24.3301 18.2477 39.8131 c 2.7646 15.483 2.212 31.5187 0.5531 47.0018 c -2.212 17.1419 -6.6355 34.8365 -16.0357 49.2133 c -11.059 17.1419 -28.7541 29.3067 -48.1075 35.9422 C 248.6539 490.6586 214.9232 485.6819 188.9342 463.0107 z"/>
</svg>
