<?xml version="1.0" encoding="UTF-8"?>
<svg version="1.1" viewBox="0 0 355.77994 355.77994" xml:space="preserve" xmlns="http://www.w3.org/2000/svg" xmlns:svg="http://www.w3.org/2000/svg">  
   <g transform="matrix(-6.34,0,0,-6.34,177.88997,177.88994)">
	   <path
		   style="fill:#a31c28;fill-rule:nonzero;stroke:#8159c2;stroke-width:0;stroke-linecap:butt;stroke-linejoin:miter;stroke-miterlimit:4;stroke-dasharray:none;stroke-dashoffset:0"
		   transform="translate(5e-6)"
		   d="m -28.05836,-16.15421 c 0,-6.57448 5.32967,-11.90415 11.90415,-11.90415 H 16.1542 v 0 c 6.57448,0 11.90415,5.32967 11.90415,11.90415 v 32.30841 0 c 0,6.57448 -5.32967,11.90415 -11.90415,11.90415 h -32.30841 v 0 c -6.57448,0 -11.90415,-5.32967 -11.90415,-11.90415 z"
		   stroke-linecap="round"
	   />
   </g>
	<path
		style="fill:#fc861d;stroke:#440b0b;"
		d="M 179.17436,238.69259 H 157.8477 l -14.75684,-41.9458 H 77.99907 l -14.75684,41.9458 H 42.92631 L 97.70854,88.193078 h 26.68359 z m -42.24902,-59.12842 -26.38037,-73.88525 -26.48145,73.88525 z m 155.14892,100.771 h -19.00195 v -54.37793 q -8.79346,7.58056 -17.48584,11.32031 -8.69238,3.63867 -18.7998,3.63867 -20.11377,0 -32.14161,-15.46435 -11.92675,-15.56543 -11.92675,-42.85547 0,-14.55469 4.14404,-25.67285 4.24512,-11.21924 11.11816,-18.79981 6.6709,-7.37842 15.66651,-11.42138 8.9956,-4.04297 19.00195,-4.04297 9.09668,0 16.0708,2.02148 7.0752,2.02149 14.35254,5.96338 l 1.21289,-4.85156 h 17.78906 z M 273.07231,209.98751 V 146.1086 q -7.88379,-3.53759 -13.94824,-4.95263 -6.06446,-1.41504 -13.13965,-1.41504 -16.4751,0 -25.06641,11.21924 -8.59131,11.11816 -8.59131,30.72656 0,19.81055 6.87305,30.52441 6.97412,10.6128 21.83203,10.6128 8.28809,0 16.57617,-3.5376 8.28809,-3.63867 15.46436,-9.29883 z"
	/>
</svg>
