<svg id="Capa_1" enable-background="new 0 0 512 512" height="512" viewBox="0 0 512 512" width="512" xmlns="http://www.w3.org/2000/svg"><g><path d="m391.05 169.004c39.624 36.934 64.091 89.94 63.014 148.638-1.995 108.749-92.311 195.951-201.067 194.335-108.022-1.605-195.095-89.652-195.095-198.056 0-33.85 8.487-65.718 23.464-93.585 2.37-4.41 8.414-5.146 11.796-1.454 9.894 10.802 29.852 29.226 51.732 30.355 0 0-25.416-177.233 144.534-248.634 6.331-2.66 12.532 4.041 9.335 10.118-11.515 21.886-26.552 60.656-13.366 96.617 15.991 43.612 64.369 39.411 65.46 126.272 0 0 19.787-21.932 28.055-60.766 1.182-5.558 7.981-7.715 12.138-3.84z" fill="#fd8087"/><path d="m282.108 510.293c-8.543 1.117-17.263 1.702-26.108 1.702-109.403 0-198.098-88.663-198.098-198.077 0-33.847 8.484-65.716 23.46-93.578 2.376-4.42 8.423-5.133 11.814-1.433 6.477 7.067 17.255 17.385 30.059 23.987-8.48 22.046-13.117 45.992-13.117 71.025 0 100.557 74.931 183.592 171.99 196.374z" fill="#fe646f"/><path d="m298.753 10.746c-2.755 5.238-5.712 11.443-8.436 18.344-113.1 81.426-93.206 220.154-93.206 220.154-23.226-1.201-44.29-21.889-53.449-32.259 1.53-54.495 20.99-163.97 145.782-216.387 6.331-2.66 12.505 4.071 9.309 10.148z" fill="#fe646f"/><path d="m353.716 414.321c0 26.983-10.944 51.399-28.623 69.079-17.68 17.68-42.115 28.6-69.098 28.6-53.947 0-97.683-43.713-97.703-97.66 0-.019 0-.019 0-.039-.232-18.837 3.524-40.852 13.797-66.167 1.417-3.491 5.226-5.365 8.842-4.308l33.701 9.85c1.133-59.687 44.273-89.491 63.825-99.956 4.475-2.395 9.948.382 10.681 5.404 3.195 21.898 9.701 43.018 21.536 62.357 9.901 16.155 19.262 29.994 30.09 45.493 9.382 13.454 13.03 31.211 12.952 47.347z" fill="#fef48b"/><g fill="#fef056"><path d="m271.665 510.742c-5.096.825-10.328 1.253-15.665 1.253-53.95 0-97.686-43.705-97.707-97.655 0-.021 0-.021 0-.042-.232-18.837 3.52-40.853 13.794-66.164 1.417-3.491 5.226-5.365 8.843-4.307l21.684 6.339c-9.67 24.458-13.221 45.804-12.991 64.132v.042c.021 48.614 35.538 88.914 82.042 96.402z"/><path d="m290.337 266.443c-20.135 15.78-43.548 43.475-44.373 87.232l-30.828-9.013c5.019-53.676 44.74-80.99 63.293-90.924 4.492-2.405 9.972.373 10.711 5.414.358 2.443.757 4.874 1.197 7.291z"/></g></g></svg>